<?xml version="1.0" encoding="UTF-8"?>
<svg version="1.1" xmlns="http://www.w3.org/2000/svg" width="200" height="57">
<path d="M0 0 C66 0 132 0 200 0 C200 18.81 200 37.62 200 57 C134 57 68 57 0 57 C0 38.19 0 19.38 0 0 Z " fill="#F2C39D" transform="translate(0,0)"/>
<path d="M0 0 C6.26848159 3.32066404 10.3495272 8.55553906 12.53125 15.26953125 C14.02302695 22.16899963 13.6878087 29.30344486 10 35.4375 C5.24530613 41.38086733 0.26691921 45.79539102 -7.53125 46.74609375 C-14.99819516 47.09217407 -22.03017293 45.82106569 -27.8515625 40.859375 C-34.31780245 33.78792047 -35.64041148 27.25687083 -35.41015625 17.81640625 C-34.51755819 10.46309842 -30.26820724 6.22968982 -24.74609375 1.6640625 C-17.69738791 -3.28737739 -7.91064393 -3.14000006 0 0 Z " fill="#080403" transform="translate(53,6.5625)"/>
<path d="M0 0 C0.78503906 0.01417969 1.57007812 0.02835938 2.37890625 0.04296875 C3.55259766 0.05263672 3.55259766 0.05263672 4.75 0.0625 C6.94140625 0.23046875 6.94140625 0.23046875 9.94140625 1.23046875 C9.61140625 2.55046875 9.28140625 3.87046875 8.94140625 5.23046875 C9.60140625 5.56046875 10.26140625 5.89046875 10.94140625 6.23046875 C11.37453125 5.30234375 11.37453125 5.30234375 11.81640625 4.35546875 C12.94140625 2.23046875 12.94140625 2.23046875 14.94140625 0.23046875 C19.16690282 -0.3276157 21.25482873 -0.20777222 24.87890625 2.10546875 C27.78041506 6.50169422 27.81793453 10.1061496 26.94140625 15.23046875 C25.37138554 18.50703371 24.20631706 19.75003474 20.8125 21.0390625 C16.2642372 22.24543863 14.13697029 22.44380656 9.94140625 20.23046875 C9.28140625 20.56046875 8.62140625 20.89046875 7.94140625 21.23046875 C6.10487462 21.16811737 4.27034672 21.0335498 2.44140625 20.85546875 C1.46171875 20.76523437 0.48203125 20.675 -0.52734375 20.58203125 C-3.05859375 20.23046875 -3.05859375 20.23046875 -5.05859375 19.23046875 C-5.05859375 18.24046875 -5.05859375 17.25046875 -5.05859375 16.23046875 C-4.06859375 16.56046875 -3.07859375 16.89046875 -2.05859375 17.23046875 C0.2744045 17.27001109 2.60848814 17.27448607 4.94140625 17.23046875 C4.94140625 15.91046875 4.94140625 14.59046875 4.94140625 13.23046875 C4.37550781 12.95332031 3.80960938 12.67617188 3.2265625 12.390625 C2.49308594 12.02839844 1.75960937 11.66617188 1.00390625 11.29296875 C-0.09244141 10.75349609 -0.09244141 10.75349609 -1.2109375 10.203125 C-3.05859375 9.23046875 -3.05859375 9.23046875 -4.05859375 8.23046875 C-4.24609375 5.29296875 -4.24609375 5.29296875 -4.05859375 2.23046875 C-2.05859375 0.23046875 -2.05859375 0.23046875 0 0 Z " fill="#DEB999" transform="translate(96.05859375,20.76953125)"/>
<path d="M0 0 C3.29714793 0.32971479 4.6226839 0.6226839 7 3 C7.25878906 5.3984375 7.25878906 5.3984375 7.265625 8.375 C7.26820312 9.44234375 7.27078125 10.5096875 7.2734375 11.609375 C7.26570313 12.72828125 7.25796875 13.8471875 7.25 15 C7.25773437 16.11890625 7.26546875 17.2378125 7.2734375 18.390625 C7.27085938 19.45796875 7.26828125 20.5253125 7.265625 21.625 C7.26336914 22.60726562 7.26111328 23.58953125 7.25878906 24.6015625 C7 27 7 27 5 29 C1.9375 29.1875 1.9375 29.1875 -1 29 C-3.64540597 26.35459403 -2.18562153 18.62595815 -2.1875 15.0625 C-2.20586914 13.23428711 -2.20586914 13.23428711 -2.22460938 11.36914062 C-2.22654297 10.20705078 -2.22847656 9.04496094 -2.23046875 7.84765625 C-2.23457764 6.77523682 -2.23868652 5.70281738 -2.24291992 4.59790039 C-2 2 -2 2 0 0 Z " fill="#F2B57F" transform="translate(34,15)"/>
<path d="M0 0 C0.33 0 0.66 0 1 0 C1.33 8.91 1.66 17.82 2 27 C0.35 26.67 -1.3 26.34 -3 26 C-3.33 26.33 -3.66 26.66 -4 27 C-6.9375 27.1875 -6.9375 27.1875 -10 27 C-12.70078753 24.29921247 -12.29894358 22.75964828 -12.3125 19 C-12.32925781 17.9275 -12.34601563 16.855 -12.36328125 15.75 C-12.24339844 14.8425 -12.12351563 13.935 -12 13 C-8.75366476 10.8357765 -7.75698557 10.62430144 -4 11 C-3.01 11.66 -2.02 12.32 -1 13 C-1 12.01 -1 11.02 -1 10 C-4.3 9.67 -7.6 9.34 -11 9 C-11 8.34 -11 7.68 -11 7 C-3.25 5.875 -3.25 5.875 -1 7 C-0.67 4.69 -0.34 2.38 0 0 Z " fill="#F2C69E" transform="translate(173,12)"/>
<path d="M0 0 C1.90625 0.3828125 1.90625 0.3828125 4.40625 2.0078125 C6.30012281 5.00644444 6.29346999 6.89783257 5.90625 10.3828125 C4.90625 11.3828125 4.90625 11.3828125 2.18359375 11.48046875 C0.53037109 11.46306641 0.53037109 11.46306641 -1.15625 11.4453125 C-2.81333984 11.43177734 -2.81333984 11.43177734 -4.50390625 11.41796875 C-5.35855469 11.40636719 -6.21320313 11.39476562 -7.09375 11.3828125 C-6.74930119 13.85548015 -6.74930119 13.85548015 -6.09375 16.3828125 C-3.3477774 17.7557988 -1.1348453 17.50693884 1.90625 17.3828125 C2.89625 17.0528125 3.88625 16.7228125 4.90625 16.3828125 C4.57625 17.7028125 4.24625 19.0228125 3.90625 20.3828125 C2.32445385 20.49148552 0.74047847 20.56871077 -0.84375 20.6328125 C-1.72546875 20.67921875 -2.6071875 20.725625 -3.515625 20.7734375 C-6.09375 20.3828125 -6.09375 20.3828125 -8.390625 18.7421875 C-10.53585857 15.77035017 -10.63014226 14.02203849 -10.59375 10.3828125 C-10.6040625 9.3515625 -10.614375 8.3203125 -10.625 7.2578125 C-9.4857906 1.0926793 -5.68154337 -0.31799683 0 0 Z " fill="#26150D" transform="translate(84.09375,20.6171875)"/>
<path d="M0 0 C1.90625 0.453125 1.90625 0.453125 4.40625 2.640625 C5.98837417 5.60710783 6.36455468 7.15333128 5.90625 10.453125 C4.90625 11.453125 4.90625 11.453125 2.18359375 11.55078125 C0.53037109 11.53337891 0.53037109 11.53337891 -1.15625 11.515625 C-2.81333984 11.50208984 -2.81333984 11.50208984 -4.50390625 11.48828125 C-5.35855469 11.47667969 -6.21320313 11.46507812 -7.09375 11.453125 C-6.74930119 13.92579265 -6.74930119 13.92579265 -6.09375 16.453125 C-3.3477774 17.8261113 -1.1348453 17.57725134 1.90625 17.453125 C2.89625 17.123125 3.88625 16.793125 4.90625 16.453125 C4.57625 17.773125 4.24625 19.093125 3.90625 20.453125 C2.32445385 20.56179802 0.74047847 20.63902327 -0.84375 20.703125 C-1.72546875 20.74953125 -2.6071875 20.7959375 -3.515625 20.84375 C-6.09375 20.453125 -6.09375 20.453125 -8.390625 18.8125 C-10.53585857 15.84066267 -10.63014226 14.09235099 -10.59375 10.453125 C-10.6040625 9.421875 -10.614375 8.390625 -10.625 7.328125 C-9.49425208 1.20878334 -5.67059607 -0.29622517 0 0 Z " fill="#28160D" transform="translate(150.09375,20.546875)"/>
<path d="M0 0 C2.96768263 0.51934446 3.6904997 1.0748096 5.5 3.4375 C5.8984375 5.8125 5.8984375 5.8125 5.875 8.4375 C5.88273437 9.30375 5.89046875 10.17 5.8984375 11.0625 C5.42742848 13.87008318 4.75994271 14.75605937 2.5 16.4375 C0 16.875 0 16.875 -2.5 16.4375 C-4.6446305 14.66263338 -5.37365521 13.28210623 -5.78515625 10.53125 C-5.92728557 7.21901898 -5.74703256 4.95756854 -4.3125 1.9375 C-2.5 0.4375 -2.5 0.4375 0 0 Z " fill="#F4C59D" transform="translate(114.5,22.5625)"/>
<path d="M0 0 C3.5625 0.5625 3.5625 0.5625 6.5 2.4375 C9.3996274 6.83087486 9.44402847 10.44123939 8.5625 15.5625 C7.0625 18.6875 7.0625 18.6875 4.5625 20.5625 C1.76476197 21.19887074 -0.6684803 21.34669503 -3.4375 20.5625 C-6.30406358 18.41762408 -7.31260937 17.23837872 -7.96875 13.6875 C-7.9584375 12.65625 -7.948125 11.625 -7.9375 10.5625 C-7.9478125 9.53125 -7.958125 8.5 -7.96875 7.4375 C-7.06477926 2.54542306 -4.80303317 0.78595088 0 0 Z M-4.25 4.0625 C-5.9346479 7.60912716 -6.01485621 10.70291327 -5.4375 14.5625 C-4.43713019 17.12258963 -4.43713019 17.12258963 -2.4375 18.5625 C0.0625 19.14583333 0.0625 19.14583333 2.5625 18.5625 C4.82244271 16.88105937 5.48992848 15.99508318 5.9609375 13.1875 C5.95320313 12.32125 5.94546875 11.455 5.9375 10.5625 C5.94523437 9.69625 5.95296875 8.83 5.9609375 7.9375 C5.48992848 5.12991682 4.82244271 4.24394063 2.5625 2.5625 C-0.52560379 2.02208184 -1.81076012 2.04381872 -4.25 4.0625 Z " fill="#140602" transform="translate(114.4375,20.4375)"/>
<path d="M0 0 C3.29714793 0.32971479 4.6226839 0.6226839 7 3 C7.25878906 5.3984375 7.25878906 5.3984375 7.265625 8.375 C7.26820312 9.44234375 7.27078125 10.5096875 7.2734375 11.609375 C7.26570313 12.72828125 7.25796875 13.8471875 7.25 15 C7.25773437 16.11890625 7.26546875 17.2378125 7.2734375 18.390625 C7.27085938 19.45796875 7.26828125 20.5253125 7.265625 21.625 C7.26336914 22.60726562 7.26111328 23.58953125 7.25878906 24.6015625 C7 27 7 27 5 29 C1.875 29.125 1.875 29.125 -1 29 C-2 27 -2 27 -1.1875 24.125 C-0.24475819 21.6441005 0.7442206 19.33216175 2 17 C2.66 17 3.32 17 4 17 C4 17.99 4 18.98 4 20 C4.66 20 5.32 20 6 20 C5.855625 18.94039062 5.71125 17.88078125 5.5625 16.7890625 C5.37493088 15.40105101 5.18743466 14.01302966 5 12.625 C4.90460937 11.92632812 4.80921875 11.22765625 4.7109375 10.5078125 C4 5.2265625 4 5.2265625 4 3 C1.05270463 1.84188612 1.05270463 1.84188612 -2 2 C-1.34 1.34 -0.68 0.68 0 0 Z " fill="#F1B581" transform="translate(34,15)"/>
<path d="M0 0 C0.99 0 1.98 0 3 0 C3 3.3 3 6.6 3 10 C5.31 10 7.62 10 10 10 C10 10.66 10 11.32 10 12 C7.69 12 5.38 12 3 12 C3.33 16.62 3.66 21.24 4 26 C5.98 26.66 7.96 27.32 10 28 C10 28.66 10 29.32 10 30 C3.55552915 30.36478137 3.55552915 30.36478137 1.2878418 28.87573242 C-0.57911648 26.15652096 -0.3390776 24.07450976 -0.29296875 20.80078125 C-0.28330078 19.59228516 -0.27363281 18.38378906 -0.26367188 17.13867188 C-0.23853516 15.87603516 -0.21339844 14.61339844 -0.1875 13.3125 C-0.17396484 12.03826172 -0.16042969 10.76402344 -0.14648438 9.45117188 C-0.11108199 6.30035943 -0.0616979 3.15038955 0 0 Z " fill="#39281E" transform="translate(174,11)"/>
<path d="M0 0 C1.21816406 0.03480469 1.21816406 0.03480469 2.4609375 0.0703125 C3.68683594 0.09738281 3.68683594 0.09738281 4.9375 0.125 C5.87722656 0.15980469 5.87722656 0.15980469 6.8359375 0.1953125 C7.1659375 1.1853125 7.4959375 2.1753125 7.8359375 3.1953125 C5.1959375 3.1953125 2.5559375 3.1953125 -0.1640625 3.1953125 C-0.8240625 4.5153125 -1.4840625 5.8353125 -2.1640625 7.1953125 C-1.22433594 7.48535156 -1.22433594 7.48535156 -0.265625 7.78125 C0.96027344 8.17183594 0.96027344 8.17183594 2.2109375 8.5703125 C3.02304688 8.82554688 3.83515625 9.08078125 4.671875 9.34375 C6.8359375 10.1953125 6.8359375 10.1953125 8.8359375 12.1953125 C8.5859375 15.7578125 8.5859375 15.7578125 7.8359375 19.1953125 C5.46980294 20.37837978 3.96813014 20.32885858 1.3359375 20.3203125 C0.541875 20.32289062 -0.2521875 20.32546875 -1.0703125 20.328125 C-3.1640625 20.1953125 -3.1640625 20.1953125 -5.1640625 19.1953125 C-5.1640625 18.2053125 -5.1640625 17.2153125 -5.1640625 16.1953125 C-4.1740625 16.5253125 -3.1840625 16.8553125 -2.1640625 17.1953125 C0.16893575 17.23485484 2.50301939 17.23932982 4.8359375 17.1953125 C4.8359375 15.8753125 4.8359375 14.5553125 4.8359375 13.1953125 C4.27003906 12.91816406 3.70414063 12.64101563 3.12109375 12.35546875 C2.38761719 11.99324219 1.65414062 11.63101563 0.8984375 11.2578125 C-0.19791016 10.71833984 -0.19791016 10.71833984 -1.31640625 10.16796875 C-3.1640625 9.1953125 -3.1640625 9.1953125 -4.1640625 8.1953125 C-4.3515625 5.2578125 -4.3515625 5.2578125 -4.1640625 2.1953125 C-2.1640625 0.1953125 -2.1640625 0.1953125 0 0 Z " fill="#1C0E09" transform="translate(96.1640625,20.8046875)"/>
<path d="M0 0 C0.66 0.33 1.32 0.66 2 1 C2 1.99 2 2.98 2 4 C-0.01822917 3.70703125 -2.03645833 3.4140625 -4.0546875 3.12109375 C-6.08140667 2.8315703 -6.08140667 2.8315703 -8 4 C-8.02686553 5.97909398 -8.04633375 7.95828971 -8.0625 9.9375 C-8.07410156 11.03964844 -8.08570313 12.14179687 -8.09765625 13.27734375 C-8.31262571 15.91447634 -8.31262571 15.91447634 -7 17 C-3.63370749 17.14636054 -1.21580438 17.07193479 2 16 C1.67 17.32 1.34 18.64 1 20 C-0.6026782 20.10824843 -2.20745748 20.18570645 -3.8125 20.25 C-4.70582031 20.29640625 -5.59914062 20.3428125 -6.51953125 20.390625 C-9 20 -9 20 -10.796875 18.359375 C-12.29665975 15.41823867 -12.43338242 13.29406253 -12.4375 10 C-12.45683594 8.96875 -12.47617188 7.9375 -12.49609375 6.875 C-11.21393566 -0.55545949 -6.28454882 -0.50681845 0 0 Z " fill="#1A0A06" transform="translate(170,21)"/>
<path d="M0 0 C0.66 0 1.32 0 2 0 C2 10.89 2 21.78 2 33 C1.01 33 0.02 33 -1 33 C-1.02465392 28.46102295 -1.04283789 23.92208457 -1.05493164 19.38305664 C-1.0599714 17.83780234 -1.0668032 16.29255284 -1.07543945 14.74731445 C-1.08752076 12.53074971 -1.09323173 10.31424782 -1.09765625 8.09765625 C-1.10281754 7.4028566 -1.10797882 6.70805695 -1.11329651 5.99220276 C-1.11349277 4.3277067 -1.06189129 2.66334501 -1 1 C-0.67 0.67 -0.34 0.34 0 0 Z " fill="#26160D" transform="translate(127,8)"/>
<path d="M0 0 C0.66 0 1.32 0 2 0 C2 10.89 2 21.78 2 33 C1.01 33 0.02 33 -1 33 C-1.02465392 28.46102295 -1.04283789 23.92208457 -1.05493164 19.38305664 C-1.0599714 17.83780234 -1.0668032 16.29255284 -1.07543945 14.74731445 C-1.08752076 12.53074971 -1.09323173 10.31424782 -1.09765625 8.09765625 C-1.10281754 7.4028566 -1.10797882 6.70805695 -1.11329651 5.99220276 C-1.11349277 4.3277067 -1.06189129 2.66334501 -1 1 C-0.67 0.67 -0.34 0.34 0 0 Z " fill="#2F1F17" transform="translate(134,8)"/>
<path d="M0 0 C2.4375 0.75 2.4375 0.75 4.4375 2.75 C4.80237512 5.59602594 4.83949375 7.1364306 3.25 9.5625 C0.8239306 11.15199375 -0.71647406 11.11487512 -3.5625 10.75 C-5.5625 8.75 -5.5625 8.75 -5.875 5.25 C-5.771875 4.095 -5.66875 2.94 -5.5625 1.75 C-2.5625 -0.25 -2.5625 -0.25 0 0 Z " fill="#E6B587" transform="translate(49.5625,15.25)"/>
<path d="M0 0 C0.33 0 0.66 0 1 0 C1.33 4.95 1.66 9.9 2 15 C2.66 15 3.32 15 4 15 C4.66 13.35 5.32 11.7 6 10 C8.97 10 11.94 10 15 10 C15.33 10.66 15.66 11.32 16 12 C14.01432292 12.16276042 12.02864583 12.32552083 10.04296875 12.48828125 C7.46260024 13.13460682 6.55161837 13.84287203 5 16 C4.42428504 18.50203648 4.42428504 18.50203648 4.3125 21.1875 C4.24675781 22.08855469 4.18101562 22.98960938 4.11328125 23.91796875 C4.07589844 24.60503906 4.03851563 25.29210937 4 26 C3.67 26 3.34 26 3 26 C2.67 24.02 2.34 22.04 2 20 C1.67 23.63 1.34 27.26 1 31 C0.67 31 0.34 31 0 31 C0 20.77 0 10.54 0 0 Z " fill="#C3A288" transform="translate(136,9)"/>
<path d="M0 0 C3.625 0.375 3.625 0.375 7 1 C7.33 2.98 7.66 4.96 8 7 C4.37 7 0.74 7 -3 7 C-2 2 -2 2 0 0 Z " fill="#D9B596" transform="translate(145,23)"/>
<path d="M0 0 C3.625 0.375 3.625 0.375 7 1 C7.33 2.98 7.66 4.96 8 7 C4.7 7 1.4 7 -2 7 C-2 2 -2 2 0 0 Z " fill="#DFB99A" transform="translate(79,23)"/>
<path d="M0 0 C0.66 0.33 1.32 0.66 2 1 C1.79503906 2.05058594 1.59007812 3.10117187 1.37890625 4.18359375 C-0.02030252 11.4432316 -1.34177736 18.62790642 -2 26 C-2.33 26 -2.66 26 -3 26 C-3.08678303 22.04180389 -3.14031733 18.08385066 -3.1875 14.125 C-3.21263672 12.99707031 -3.23777344 11.86914062 -3.26367188 10.70703125 C-3.27333984 9.63066406 -3.28300781 8.55429687 -3.29296875 7.4453125 C-3.3086792 6.45031738 -3.32438965 5.45532227 -3.34057617 4.43017578 C-3.22818604 3.62821777 -3.1157959 2.82625977 -3 2 C-2.01 1.34 -1.02 0.68 0 0 Z " fill="#F1BF98" transform="translate(35,16)"/>
<path d="M0 0 C0.33 0 0.66 0 1 0 C1.03738281 0.68707031 1.07476562 1.37414062 1.11328125 2.08203125 C1.17902344 2.98308594 1.24476562 3.88414063 1.3125 4.8125 C1.39951172 6.15248047 1.39951172 6.15248047 1.48828125 7.51953125 C2.0739225 10.35832661 2.68761923 11.29843679 5 13 C8.10839021 13.7269226 8.10839021 13.7269226 11 14 C11 14.33 11 14.66 11 15 C6.52888724 15.85982938 3.95677641 16.34475639 0 14 C-0.99 14.495 -0.99 14.495 -2 15 C-2.66 14.34 -3.32 13.68 -4 13 C-3.34 13 -2.68 13 -2 13 C-1.53477707 8.20691658 -1.53477707 8.20691658 -3.5 4.0625 C-3.995 3.711875 -4.49 3.36125 -5 3 C-3.68 3 -2.36 3 -1 3 C-0.67 2.01 -0.34 1.02 0 0 Z " fill="#D2B092" transform="translate(106,27)"/>
<path d="M0 0 C4.29 0 8.58 0 13 0 C13 0.33 13 0.66 13 1 C9.04 1 5.08 1 1 1 C1.33 2.65 1.66 4.3 2 6 C4.7459726 7.3729863 6.9589047 7.12412634 10 7 C10.99 6.67 11.98 6.34 13 6 C12.67 7.32 12.34 8.64 12 10 C8.61884349 10.29036649 5.37080851 10.44908891 2 10 C-0.625 7.5 -0.625 7.5 -2 5 C-1.34 5 -0.68 5 0 5 C0 3.35 0 1.7 0 0 Z " fill="#2D1B11" transform="translate(142,31)"/>
<path d="M0 0 C3.29714793 0.32971479 4.6226839 0.6226839 7 3 C7.22705078 5.43017578 7.22705078 5.43017578 7.1953125 8.4453125 C7.18564453 10.05986328 7.18564453 10.05986328 7.17578125 11.70703125 C7.15902344 12.83496094 7.14226563 13.96289062 7.125 15.125 C7.11597656 16.26066406 7.10695313 17.39632812 7.09765625 18.56640625 C7.07403098 21.37781299 7.04109013 24.18880298 7 27 C6.67 27 6.34 27 6 27 C5.34 19.08 4.68 11.16 4 3 C1.05270463 1.84188612 1.05270463 1.84188612 -2 2 C-1.34 1.34 -0.68 0.68 0 0 Z " fill="#C39872" transform="translate(34,15)"/>
<path d="M0 0 C2.31 0.66 4.62 1.32 7 2 C7.38218767 3.65614657 7.71395102 5.32457024 8 7 C7 8 7 8 3.4375 8.0625 C2.303125 8.041875 1.16875 8.02125 0 8 C0 5.36 0 2.72 0 0 Z " fill="#EAC39F" transform="translate(94,31)"/>
<path d="M0 0 C0.33 0 0.66 0 1 0 C1.61016949 8.72881356 1.61016949 8.72881356 -0.5 13.125 C-4.1314309 15.84857317 -6.53542721 15.37204773 -11 15 C-8.77077045 12.77077045 -6.90864722 12.11871047 -4 11 C-2.11732015 9.11732015 -2.59379463 6.42937958 -2.37890625 3.91015625 C-2 2 -2 2 0 0 Z " fill="#24130A" transform="translate(122,26)"/>
<path d="M0 0 C0.33 0 0.66 0 1 0 C1.185625 1.2065625 1.185625 1.2065625 1.375 2.4375 C1.58125 3.283125 1.7875 4.12875 2 5 C4.7459726 6.3729863 6.9589047 6.12412634 10 6 C10.99 5.67 11.98 5.34 13 5 C12.67 6.32 12.34 7.64 12 9 C2.90495571 9.62485037 2.90495571 9.62485037 -0.625 7.1875 C-2 5 -2 5 -2 2 C-1.34 2 -0.68 2 0 2 C0 1.34 0 0.68 0 0 Z " fill="#29150E" transform="translate(76,32)"/>
<path d="M0 0 C0.33 0 0.66 0 1 0 C1.06058594 0.71027344 1.12117187 1.42054687 1.18359375 2.15234375 C1.26738281 3.07144531 1.35117188 3.99054687 1.4375 4.9375 C1.51871094 5.85402344 1.59992188 6.77054688 1.68359375 7.71484375 C1.76044976 9.96159732 1.76044976 9.96159732 3 11 C6.36629251 11.14636054 8.78419562 11.07193479 12 10 C11.67 11.32 11.34 12.64 11 14 C7.7 14 4.4 14 1 14 C-1.04379831 9.91240337 -1.18594005 9.01314435 -0.625 4.75 C-0.51414063 3.85796875 -0.40328125 2.9659375 -0.2890625 2.046875 C-0.19367188 1.37140625 -0.09828125 0.6959375 0 0 Z " fill="#1F0F08" transform="translate(160,27)"/>
<path d="M0 0 C3.3 0 6.6 0 10 0 C10 0.33 10 0.66 10 1 C8.35 1 6.7 1 5 1 C5 1.66 5 2.32 5 3 C4.34 3 3.68 3 3 3 C3 3.66 3 4.32 3 5 C3.99 4.67 4.98 4.34 6 4 C8.1875 4.9375 8.1875 4.9375 10 6 C9 7 9 7 6.125 7.1875 C3 7 3 7 0 5 C0 3.35 0 1.7 0 0 Z " fill="#E2BFA0" transform="translate(143,32)"/>
<path d="M0 0 C2.4375 0.75 2.4375 0.75 4.4375 2.75 C4.5625 5.375 4.5625 5.375 4.4375 7.75 C2.7875 7.75 1.1375 7.75 -0.5625 7.75 C-0.8925 6.1 -1.2225 4.45 -1.5625 2.75 C-2.8825 2.42 -4.2025 2.09 -5.5625 1.75 C-2.5625 -0.25 -2.5625 -0.25 0 0 Z " fill="#DBA87B" transform="translate(49.5625,15.25)"/>
<path d="M0 0 C1.32 0.33 2.64 0.66 4 1 C4.66 3.64 5.32 6.28 6 9 C4.68 8.67 3.36 8.34 2 8 C2 12.95 2 17.9 2 23 C1.67 23 1.34 23 1 23 C0.67 15.41 0.34 7.82 0 0 Z " fill="#1E0C08" transform="translate(40,17)"/>
<path d="M0 0 C0.33 1.32 0.66 2.64 1 4 C5.29 4 9.58 4 14 4 C14 4.66 14 5.32 14 6 C9.71 6 5.42 6 1 6 C1 6.66 1 7.32 1 8 C0.34 8 -0.32 8 -1 8 C-1.04241723 5.66705225 -1.04092937 3.33297433 -1 1 C-0.67 0.67 -0.34 0.34 0 0 Z " fill="#160A06" transform="translate(75,26)"/>
<path d="M0 0 C0.33 0 0.66 0 1 0 C1 4.95 1 9.9 1 15 C0.01 15.495 0.01 15.495 -1 16 C-1 15.34 -1 14.68 -1 14 C-1.66 13.67 -2.32 13.34 -3 13 C-2.88557539 11.39504433 -2.75805306 9.79101881 -2.625 8.1875 C-2.55539063 7.29417969 -2.48578125 6.40085937 -2.4140625 5.48046875 C-2 3 -2 3 0 0 Z " fill="#E7C3A4" transform="translate(125,23)"/>
<path d="M0 0 C0.33 0 0.66 0 1 0 C0.74438677 2.3431213 0.40729228 4.67843403 0 7 C-2.36613456 8.18306728 -3.86780736 8.13354608 -6.5 8.125 C-7.2940625 8.12757812 -8.088125 8.13015625 -8.90625 8.1328125 C-11 8 -11 8 -13 7 C-13 6.01 -13 5.02 -13 4 C-12.01 4.33 -11.02 4.66 -10 5 C-6.5 5.5 -6.5 5.5 -3 5 C-1.0645852 2.60943058 -1.0645852 2.60943058 0 0 Z " fill="#2F1A10" transform="translate(104,33)"/>
<path d="M0 0 C0.66 0 1.32 0 2 0 C2 2.97 2 5.94 2 9 C4.31 9 6.62 9 9 9 C9 9.66 9 10.32 9 11 C6.69 11 4.38 11 2 11 C1.67 11.66 1.34 12.32 1 13 C0 12 0 12 -0.09765625 9.27734375 C-0.08605469 8.17519531 -0.07445312 7.07304687 -0.0625 5.9375 C-0.05347656 4.83277344 -0.04445312 3.72804688 -0.03515625 2.58984375 C-0.02355469 1.73519531 -0.01195312 0.88054688 0 0 Z " fill="#160402" transform="translate(175,12)"/>
<path d="M0 0 C0.33 0 0.66 0 1 0 C1 3.63 1 7.26 1 11 C-4.94 10.01 -4.94 10.01 -11 9 C-11 8.34 -11 7.68 -11 7 C-3.25 5.875 -3.25 5.875 -1 7 C-0.67 4.69 -0.34 2.38 0 0 Z " fill="#DEBB9C" transform="translate(173,12)"/>
<path d="M0 0 C0.33 0 0.66 0 1 0 C1.33 2.64 1.66 5.28 2 8 C2.45375 7.505 2.9075 7.01 3.375 6.5 C5 5 5 5 7 5 C7.33 7.31 7.66 9.62 8 12 C5.6875 12.25 5.6875 12.25 3 12 C1.1875 10.5 1.1875 10.5 0 8 C-0.23884872 5.27920155 -0.13709297 2.74185932 0 0 Z " fill="#C9A789" transform="translate(109,27)"/>
<path d="M0 0 C0.33 1.32 0.66 2.64 1 4 C2.79240663 3.88610125 4.58394835 3.75852313 6.375 3.625 C7.37273437 3.55539063 8.37046875 3.48578125 9.3984375 3.4140625 C12.15508879 3.23636036 12.15508879 3.23636036 14 1 C14 2.32 14 3.64 14 5 C9.71 5 5.42 5 1 5 C1 6.65 1 8.3 1 10 C0.34 10 -0.32 10 -1 10 C-1.02689216 8.52093108 -1.04634621 7.04172517 -1.0625 5.5625 C-1.07410156 4.73878906 -1.08570313 3.91507813 -1.09765625 3.06640625 C-1 1 -1 1 0 0 Z " fill="#0B0000" transform="translate(141,26)"/>
<path d="M0 0 C0 0.99 0 1.98 0 3 C-0.99 3.33 -1.98 3.66 -3 4 C-3 4.66 -3 5.32 -3 6 C-4.32 6 -5.64 6 -7 6 C-7.33 4.68 -7.66 3.36 -8 2 C-4.77208445 -0.1519437 -3.71599191 -0.20086443 0 0 Z " fill="#DFB99A" transform="translate(169,23)"/>
<path d="M0 0 C2.31 0 4.62 0 7 0 C6.01 0.495 6.01 0.495 5 1 C5 1.66 5 2.32 5 3 C7.97 3.495 7.97 3.495 11 4 C11 4.33 11 4.66 11 5 C9.58344207 5.0272415 8.16672955 5.04650467 6.75 5.0625 C5.56664062 5.07990234 5.56664062 5.07990234 4.359375 5.09765625 C2.09308998 5.00385306 0.1711105 4.63241063 -2 4 C-1.34 2.68 -0.68 1.36 0 0 Z " fill="#E3B692" transform="translate(34,0)"/>
<path d="M0 0 C1.32 0.66 2.64 1.32 4 2 C2.85760183 3.33627775 1.71098945 4.66895388 0.5625 6 C-0.07558594 6.7425 -0.71367187 7.485 -1.37109375 8.25 C-1.90863281 8.8275 -2.44617188 9.405 -3 10 C-3.33 10 -3.66 10 -4 10 C-4.25 6.6875 -4.25 6.6875 -4 3 C-2 1.0625 -2 1.0625 0 0 Z " fill="#E6BE9D" transform="translate(24,7)"/>
<path d="M0 0 C4.55384615 -0.36923077 4.55384615 -0.36923077 6.8125 1.5 C7.204375 1.995 7.59625 2.49 8 3 C7.34 4.32 6.68 5.64 6 7 C6 5.68 6 4.36 6 3 C3.36 3.33 0.72 3.66 -2 4 C-1.34 2.68 -0.68 1.36 0 0 Z " fill="#D1AF95" transform="translate(112,23)"/>
<path d="M0 0 C1.21816406 0.03480469 1.21816406 0.03480469 2.4609375 0.0703125 C3.68683594 0.09738281 3.68683594 0.09738281 4.9375 0.125 C5.87722656 0.15980469 5.87722656 0.15980469 6.8359375 0.1953125 C7.1659375 1.1853125 7.4959375 2.1753125 7.8359375 3.1953125 C5.81770833 3.16276042 3.79947917 3.13020833 1.78125 3.09765625 C-0.24591654 3.06882008 -0.24591654 3.06882008 -2.1640625 4.1953125 C-2.8240625 3.5353125 -3.4840625 2.8753125 -4.1640625 2.1953125 C-2.1640625 0.1953125 -2.1640625 0.1953125 0 0 Z " fill="#27150C" transform="translate(96.1640625,20.8046875)"/>
<path d="M0 0 C0.33 0 0.66 0 1 0 C1.1953125 6.0546875 1.1953125 6.0546875 1 8 C-1 10 -1 10 -3.625 10.125 C-4.40875 10.08375 -5.1925 10.0425 -6 10 C-5.38125 9.46375 -4.7625 8.9275 -4.125 8.375 C-1.7217098 5.68896977 -0.93977847 3.44585438 0 0 Z " fill="#E8C4A7" transform="translate(119,28)"/>
<path d="M0 0 C0.33 0 0.66 0 1 0 C1.04898438 0.63808594 1.09796875 1.27617187 1.1484375 1.93359375 C1.22320312 2.75988281 1.29796875 3.58617187 1.375 4.4375 C1.44460937 5.26121094 1.51421875 6.08492187 1.5859375 6.93359375 C1.72257813 7.61550781 1.85921875 8.29742187 2 9 C2.66 9.33 3.32 9.66 4 10 C2.35 10 0.7 10 -1 10 C-1.02689216 8.52093108 -1.04634621 7.04172517 -1.0625 5.5625 C-1.07410156 4.73878906 -1.08570313 3.91507813 -1.09765625 3.06640625 C-1 1 -1 1 0 0 Z " fill="#ECC8A8" transform="translate(179,10)"/>
<path d="M0 0 C0.33 0 0.66 0 1 0 C1.33 4.62 1.66 9.24 2 14 C0.68 13.67 -0.64 13.34 -2 13 C-1.34 8.71 -0.68 4.42 0 0 Z " fill="#CAA98D" transform="translate(157,27)"/>
<path d="M0 0 C0.99 0.33 1.98 0.66 3 1 C2.67 2.65 2.34 4.3 2 6 C-0.31 6 -2.62 6 -5 6 C-5 5.67 -5 5.34 -5 5 C-3.35 5 -1.7 5 0 5 C0 4.34 0 3.68 0 3 C-0.66 2.67 -1.32 2.34 -2 2 C-1.34 2 -0.68 2 0 2 C0 1.34 0 0.68 0 0 Z " fill="#D7B79D" transform="translate(99,33)"/>
<path d="M0 0 C1.33332095 2.6666419 0.67102033 4.16680303 0 7 C-1.65 6.67 -3.3 6.34 -5 6 C-5 5.34 -5 4.68 -5 4 C-3.37373596 2.61767557 -1.7074998 1.28062485 0 0 Z " fill="#E0B997" transform="translate(58,46)"/>
<path d="M0 0 C0.33 0 0.66 0 1 0 C1.06058594 0.67546875 1.12117187 1.3509375 1.18359375 2.046875 C1.26738281 2.93890625 1.35117188 3.8309375 1.4375 4.75 C1.55931641 6.07257812 1.55931641 6.07257812 1.68359375 7.421875 C1.96238465 9.69350452 2.38790577 11.79851823 3 14 C1.68 13.34 0.36 12.68 -1 12 C-0.67 8.04 -0.34 4.08 0 0 Z " fill="#483021" transform="translate(160,27)"/>
<path d="M0 0 C2.64 0 5.28 0 8 0 C6.68 0.33 5.36 0.66 4 1 C3.67 2.32 3.34 3.64 3 5 C2.01 4.67 1.02 4.34 0 4 C0 2.68 0 1.36 0 0 Z " fill="#F0C7A6" transform="translate(78,32)"/>
<path d="M0 0 C0.99 0 1.98 0 3 0 C3 0.66 3 1.32 3 2 C4.98 2 6.96 2 9 2 C8.67 2.66 8.34 3.32 8 4 C6.02 4 4.04 4 2 4 C1.34 2.68 0.68 1.36 0 0 Z " fill="#CFB298" transform="translate(161,35)"/>
<path d="M0 0 C3.96 0 7.92 0 12 0 C12 0.66 12 1.32 12 2 C11.07767578 1.96519531 11.07767578 1.96519531 10.13671875 1.9296875 C9.32847656 1.91164063 8.52023438 1.89359375 7.6875 1.875 C6.48673828 1.84019531 6.48673828 1.84019531 5.26171875 1.8046875 C2.71611424 1.84182678 2.71611424 1.84182678 0 4 C0 2.68 0 1.36 0 0 Z " fill="#C4A488" transform="translate(108,20)"/>
<path d="M0 0 C2 1.25 2 1.25 4 3 C4 4.32 4 5.64 4 7 C2.68 6.67 1.36 6.34 0 6 C0 4.02 0 2.04 0 0 Z " fill="#EABE98" transform="translate(44,18)"/>
<path d="M0 0 C2.125 0.375 2.125 0.375 4 1 C-1.75 6 -1.75 6 -4 6 C-2.84826645 3.53199953 -1.95216435 1.95216435 0 0 Z " fill="#1E0B05" transform="translate(144,21)"/>
<path d="M0 0 C0.5625 1.9375 0.5625 1.9375 1 4 C0 5 0 5 -3.0625 5.0625 C-4.031875 5.041875 -5.00125 5.02125 -6 5 C-6.33 4.34 -6.66 3.68 -7 3 C-3.86650268 1.95550089 -3.01031744 2.06576355 0 3 C0 2.01 0 1.02 0 0 Z " fill="#D9AB85" transform="translate(39,39)"/>
<path d="M0 0 C0.53625 0.474375 1.0725 0.94875 1.625 1.4375 C4.42842836 3.28186076 6.69620258 3.62456847 10 4 C10 4.33 10 4.66 10 5 C7.69 5.33 5.38 5.66 3 6 C0 2.25 0 2.25 0 0 Z " fill="#C1A287" transform="translate(107,37)"/>
<path d="M0 0 C0.66 0 1.32 0 2 0 C2 3.63 2 7.26 2 11 C1.67 11 1.34 11 1 11 C0.63890458 9.35567294 0.28629924 7.7094792 -0.0625 6.0625 C-0.25972656 5.14597656 -0.45695313 4.22945312 -0.66015625 3.28515625 C-0.77230469 2.53105469 -0.88445312 1.77695312 -1 1 C-0.67 0.67 -0.34 0.34 0 0 Z " fill="#C5A586" transform="translate(138,24)"/>
<path d="M0 0 C1.98 0 3.96 0 6 0 C6 0.99 6 1.98 6 3 C4.35 3 2.7 3 1 3 C0.67 2.01 0.34 1.02 0 0 Z " fill="#F8C59A" transform="translate(96,25)"/>
<path d="M0 0 C3.91402949 1.26941497 5.79072873 2.51167694 8 6 C7.01 6 6.02 6 5 6 C5 5.34 5 4.68 5 4 C2.525 3.01 2.525 3.01 0 2 C0 1.34 0 0.68 0 0 Z " fill="#26160E" transform="translate(52,7)"/>
</svg>
